<svg width="24" height="24" viewBox="0 0 24 24" fill="none" xmlns="http://www.w3.org/2000/svg">
<path d="M15.8576 18.0002L12.2146 14.3572C12.0963 14.2389 11.9044 14.2389 11.786 14.3572L8.14307 18.0002C7.55137 18.5919 6.59187 18.5919 6.00016 18.0002C5.40845 17.4085 5.40845 16.449 6.00016 15.8572L9.64311 12.2143C9.76146 12.096 9.76146 11.904 9.64311 11.7857L6.00016 8.14275C5.40845 7.55105 5.40845 6.59155 6.00016 5.99984C6.59187 5.40813 7.55137 5.40813 8.14307 5.99984L11.786 9.64279C11.9044 9.76114 12.0963 9.76114 12.2146 9.64279L15.8576 5.99984C16.4493 5.40813 17.4088 5.40813 18.0005 5.99984C18.5922 6.59155 18.5922 7.55105 18.0005 8.14275L14.3575 11.7857C14.2392 11.9041 14.2392 12.0959 14.3575 12.2143L18.0005 15.8572C18.5922 16.449 18.5922 17.4085 18.0005 18.0002C17.4088 18.5919 16.4493 18.5919 15.8576 18.0002Z" fill="white"/>
</svg>
